<?xml version="1.0" standalone="no"?>
<!DOCTYPE svg PUBLIC "-//W3C//DTD SVG 1.1//EN" "http://www.w3.org/Graphics/SVG/1.1/DTD/svg11.dtd" >
<!--
2013-9-30: Created.
-->
<svg>
<metadata>
Created by iconfont
</metadata>
<defs>

<font id="iconfont" horiz-adv-x="1024" >
  <font-face
    font-family="iconfont"
    font-weight="500"
    font-stretch="normal"
    units-per-em="1024"
    ascent="896"
    descent="-128"
  />
    <missing-glyph />
    
    <glyph glyph-name="erjitubiao_chaxun" unicode="&#58897;" d="M675.157333 227.498667l183.253334-151.253334a49.92 49.92 0 0 0 6.186666-70.826666 51.541333 51.541333 0 0 0-72.021333-6.314667l-183.253333 151.253333a49.92 49.92 0 0 0-6.186667 70.826667 51.541333 51.541333 0 0 0 72.021333 6.314667z"  horiz-adv-x="1024" />

    
    <glyph glyph-name="erjitubiao_huishan" unicode="&#58885;" d="M512 810.666667c235.648 0 426.666667-191.018667 426.666667-426.666667s-191.018667-426.666667-426.666667-426.666667S85.333333 148.352 85.333333 384 276.352 810.666667 512 810.666667zM336.170667 597.333333a37.162667 37.162667 0 0 1-26.453334-11.093333 37.162667 37.162667 0 0 1 0-52.906667l151.765334-151.765333-151.765334-151.765333a37.162667 37.162667 0 0 1 0-52.864 37.162667 37.162667 0 0 1 52.906667 0l151.765333 151.765333 151.765334-151.765333a37.162667 37.162667 0 0 1 52.821333 0 37.162667 37.162667 0 0 1 0 52.864l-151.765333 151.765333L718.976 533.333333a37.162667 37.162667 0 0 1 0 52.906667 37.162667 37.162667 0 0 1-52.821333 0l-151.765334-151.765333L362.624 586.24a37.162667 37.162667 0 0 1-26.453333 11.093333z"  horiz-adv-x="1024" />

    
    <glyph glyph-name="icx2Ferjitubiaox2Fzengjia" unicode="&#58884;" d="M512 810.666667c235.648 0 426.666667-191.018667 426.666667-426.666667s-191.018667-426.666667-426.666667-426.666667S85.333333 148.352 85.333333 384 276.352 810.666667 512 810.666667zM512 576a32 32 0 0 1-32-32v-128h-128a32 32 0 0 1 0-64h128v-128a32 32 0 1 1 64 0v128h128a32 32 0 1 1 0 64h-128v128A32 32 0 0 1 512 576z"  horiz-adv-x="1024" />

    
    <glyph glyph-name="erjitubiao_shanchu_nor" unicode="&#58882;" d="M341.333333 644.266667C341.333333 736.170667 417.706667 810.666667 512 810.666667s170.666667-74.496 170.666667-166.4h170.666666c23.552 0 42.666667-18.645333 42.666667-41.6a42.154667 42.154667 0 0 0-42.666667-41.6H170.666667c-23.552 0-42.666667 18.645333-42.666667 41.6A42.154667 42.154667 0 0 0 170.666667 644.266667h170.666666z m85.333334 0h170.666666c0 45.952-38.186667 83.2-85.333333 83.2s-85.333333-37.248-85.333333-83.2z m298.666666-167.082667a42.154667 42.154667 0 0 0 42.666667 41.6c23.552 0 42.666667-18.645333 42.666667-41.6v-406.613333c0-48.768-34.304-91.904-82.688-91.904H296.021333C247.637333-21.333333 213.333333 21.802667 213.333333 70.570667V477.866667a42.154667 42.154667 0 0 0 42.666667 41.6c23.552 0 42.666667-18.645333 42.666667-41.6v-407.296c0-6.826667 1.536-8.704-2.688-8.704h432c-4.181333 0-2.645333 1.92-2.645334 8.704v406.613333z m-170.666666-32.597333a42.154667 42.154667 0 0 0 42.666666 41.6c23.552 0 42.666667-18.602667 42.666667-41.6v-291.2a42.154667 42.154667 0 0 0-42.666667-41.6c-23.552 0-42.666667 18.645333-42.666666 41.6V444.586667z m-170.666667 0a42.154667 42.154667 0 0 0 42.666667 41.6c23.552 0 42.666667-18.602667 42.666666-41.6v-291.2a42.154667 42.154667 0 0 0-42.666666-41.6c-23.552 0-42.666667 18.645333-42.666667 41.6V444.586667z"  horiz-adv-x="1024" />

    
    <glyph glyph-name="jisuyulan" unicode="&#58921;" d="M722.566485 896L539.884885 465.1008l237.090134 1.501867-395.8784-586.683734L509.984085 303.3088H238.692352L462.470485 896h260.096zM372.085419 26.965333a393.489067 393.489067 0 0 0-30.583467 722.261334l39.594667 104.925866a477.866667 477.866667 0 0 1-30.788267-909.312l21.777067 82.1248zM737.994752 815.7184l-33.1776-78.2336a393.216 393.216 0 0 0-181.0432-735.914667l-53.521067-82.875733a477.866667 477.866667 0 0 1 267.741867 897.024z"  horiz-adv-x="1024" />

    
    <glyph glyph-name="edit" unicode="&#58920;" d="M537.6 810.666667a42.666667 42.666667 0 0 0 4.949333-85.034667L537.557333 725.333333H170.666667v-682.666666h682.666666v358.826666a42.666667 42.666667 0 0 0 85.034667 4.992l0.298667-4.992V42.66666699999996a85.333333 85.333333 0 0 0-78.933334-85.12L853.333333-42.66666699999996H170.666667a85.333333 85.333333 0 0 0-85.12 78.933334L85.333333 42.66666699999996V725.333333a85.333333 85.333333 0 0 0 78.933334 85.12L170.666667 810.666667h366.933333z m388.565333-12.501334a42.666667 42.666667 0 0 0 3.541334-56.32l-3.541334-4.010666-490.666666-490.666667a42.666667 42.666667 0 0 0-63.872 56.32l3.541333 4.010667 490.666667 490.666666a42.666667 42.666667 0 0 0 60.330666 0z"  horiz-adv-x="1024" />

    
    <glyph glyph-name="export-excel" unicode="&#58916;" d="M413.223385 205.981538c-15.596308-3.859692-32.295385 11.185231-37.415385 27.332924a370.057846 370.057846 0 0 0-14.966154 103.817846c0 187.943385 178.648615 383.291077 370.372923 415.113846v6.301538c0 1.890462 0 4.332308 0.551385 6.301539l0.630154 2.363077c1.890462 13.705846 6.774154 45.449846 37.966769 65.378461a72.782769 72.782769 0 0 0 40.408615 11.815385c17.408 0 31.744-6.301538 40.408616-11.264 1.890462-0.551385 3.150769-1.890462 4.962461-3.072l187.392-148.086154a85.228308 85.228308 0 0 0-0.630154-134.931692l-186.525538-147.613539a75.145846 75.145846 0 0 0-46.08-16.226461 76.642462 76.642462 0 0 0-40.96 12.603077c-24.969846 16.068923-37.415385 40.96-37.415385 75.854769V473.009231C607.310769 459.145846 469.307077 348.317538 438.744615 243.79076899999995c-5.671385-16.856615-16.147692-37.966769-25.6-37.966769z m395.736615 550.045539v-38.596923c0-20.558769-16.147692-37.415385-36.627692-38.596923-148.086154-8.113231-303.734154-154.939077-329.80677-299.953231 78.454154 99.485538 207.163077 180.539077 330.358154 171.716923 20.48-1.260308 36.076308-17.959385 36.076308-38.518154v-41.117538c0-5.513846 0.630154-8.113231 0.630154-9.294769l185.422769 146.904615a6.931692 6.931692 0 0 1 3.150769 6.301538 8.034462 8.034462 0 0 1-3.150769 6.22277l-184.162461 145.486769c-1.260308-1.890462-1.890462-6.852923-2.441847-9.924923l0.551385-0.630154z m-17.329231-817.152H169.984a144.147692 144.147692 0 0 0-143.753846 143.753846V752.2461539999999A144.147692 144.147692 0 0 0 169.984 896H643.544615a41.117538 41.117538 0 0 0 0-82.156308H169.984a61.755077 61.755077 0 0 1-61.676308-61.676307v-670.326154c0-33.555692 27.332923-61.597538 61.676308-61.597539h621.646769a61.755077 61.755077 0 0 1 61.676308 61.676308V279.079385a40.723692 40.723692 0 1 0 81.526154 0v-196.923077c0-78.532923-64.196923-143.281231-143.202462-143.281231zM198.498462 350.916923h62.936615a34.816 34.816 0 0 0 0-69.710769H198.498462a34.816 34.816 0 0 0 0 69.710769z m0-181.720615h279.47323a34.816 34.816 0 0 0 0-69.632H198.577231a34.816 34.816 0 1 0 0 69.632z m0 501.602461h209.84123a34.816 34.816 0 1 0 0-69.710769H198.498462a34.816 34.816 0 1 0 0 69.710769z m0-166.203077h62.936615a34.816 34.816 0 0 0 0-69.632H198.498462a34.816 34.816 0 1 0 0 69.71077z"  horiz-adv-x="1102" />

    
    <glyph glyph-name="refresh" unicode="&#58917;" d="M841.364114 313.197714c0-89.234286-35.474286-172.982857-100.059428-235.958857a343.04 343.04 0 0 0-241.517715-97.792 343.04 343.04 0 0 0-241.590857 97.792 327.68 327.68 0 0 0-100.059428 235.958857c0 89.088 35.474286 172.982857 100.059428 236.032a343.405714 343.405714 0 0 0 241.590857 97.792h0.950858l-74.605715-95.085714a40.813714 40.813714 0 0 1 7.899429-58.221714 42.861714 42.861714 0 0 1 59.611428 7.68l133.851429 170.569143a40.813714 40.813714 0 0 1-7.899429 58.294857L442.296686 863.012571a43.154286 43.154286 0 0 1-59.684572-7.68 40.813714 40.813714 0 0 1 7.899429-58.221714l89.892571-67.291428a429.202286 429.202286 0 0 1-282.331428-121.709715A414.427429 414.427429 0 0 1 106.7904 475.648 405.357714 405.357714 0 0 1 73.144686 313.270857c0-56.246857 11.264-110.884571 33.645714-162.304a415.597714 415.597714 0 0 1 91.355429-132.461714 431.835429 431.835429 0 0 1 301.714285-122.148572A431.835429 431.835429 0 0 1 801.501257 18.285713999999984a414.427429 414.427429 0 0 1 91.428572 132.461715c22.308571 51.419429 33.572571 106.057143 33.572571 162.377142a42.057143 42.057143 0 0 1-42.496 41.691429 42.057143 42.057143 0 0 1-42.642286-41.618286z"  horiz-adv-x="1024" />

    
    <glyph glyph-name="export-image" unicode="&#58918;" d="M1118.952727-9.77454499999999h-52.968727 20.945455a33.885091 33.885091 0 0 1 31.930181 33.978181v-33.885091z m-0.279272 737.838545v-52.875636 20.945454a33.885091 33.885091 0 0 1-33.885091 31.930182h33.885091z m-981.92291 0h52.875637-20.945455a33.885091 33.885091 0 0 1-31.930182-33.885091v33.885091zM1141.480727 833.908364c43.194182-2.141091 78.196364-35.374545 82.850909-77.824v-790.341819a88.436364 88.436364 0 0 0-79.127272-80.98909H298.356364a52.875636 52.875636 0 1 0 0 105.937454h819.944727v737.28H136.843636V135.447273l249.483637 432.128a52.875636 52.875636 0 0 0 94.580363-5.678546l169.053091-292.770909 103.330909 178.920727a52.875636 52.875636 0 0 0 97.186909-13.777454L996.072727 181.80654500000003a52.875636 52.875636 0 1 0-91.694545-52.875636L797.696 313.53018199999997 697.250909 139.264a53.061818 53.061818 0 0 0-57.902545-25.134545 52.875636 52.875636 0 0 0-37.143273 25.786181l-170.356364 294.912-302.08-523.357091-0.279272-0.465454-0.93091-1.396364c0-0.279273-0.372364-0.651636-0.465454-0.930909l-0.744727-1.117091-0.837819-1.210182-0.465454-0.744727-1.210182-1.396363a52.410182 52.410182 0 0 0-11.729454-10.612364l-1.582546-1.024-0.930909-0.558546-0.930909-0.465454a52.875636 52.875636 0 0 0-19.362909-6.330182l-2.141091-0.186182-0.930909-0.093091c-0.465455-0.186182-0.930909-0.186182-1.396364-0.186181l-5.771636 0.09309-1.396364 0.186182c-0.930909 0-1.396364 0.186182-1.768727 0.186182l-1.582546 0.186182-0.930909 0.186182-1.768727 0.372363-0.651636 0.093091-2.048 0.558546-0.279273 0.093091a51.106909 51.106909 0 0 0-16.663273 8.005818l-1.861818 1.489454-0.465454 0.186182-1.582546 1.303273-1.024 1.024-0.651636 0.558545-0.744728 0.744728c-0.279273 0.465455-0.651636 0.651636-0.930909 1.024l-1.396363 1.489454-1.210182 1.396364-0.930909 1.303273a18.525091 18.525091 0 0 0-1.861818 2.606545H40.029091a54.085818 54.085818 0 0 0-8.843636 23.645091v1.117091l-0.093091 1.024-0.186182 2.327273V747.6130909999999A88.064 88.064 0 0 0 110.778182 833.908364zM928.674909 637.672727a52.875636 52.875636 0 1 0 52.875636-91.601454 52.875636 52.875636 0 0 0-52.875636 91.601454z"  horiz-adv-x="1303" />

    
    <glyph glyph-name="more-right" unicode="&#58919;" d="M59.864615-96.49230799999998a59.864615 59.864615 0 0 0-42.377846 102.084923L411.963077 399.911385 17.486769 794.230154A59.864615 59.864615 0 0 0 102.163692 878.828308l404.873846-404.873846a104.763077 104.763077 0 0 0 0-148.007385l-404.873846-404.873846a59.628308 59.628308 0 0 0-42.299077-17.565539zM477.892923-96.49230799999998a59.864615 59.864615 0 0 0-42.299077 102.084923l394.318769 394.31877L435.593846 794.230154A59.864615 59.864615 0 0 0 520.192 878.828308l404.873846-404.873846a104.448 104.448 0 0 0 0-148.007385l-404.873846-404.873846a59.707077 59.707077 0 0 0-42.299077-17.565539z"  horiz-adv-x="1024" />

    
    <glyph glyph-name="nodata" unicode="&#58904;" d="M83.591837-33.95918400000005c0-33.593469 88.628245-64.647837 232.489796-81.439347 143.861551-16.801959 321.118041-16.801959 464.979591 0C924.922776-98.60702000000003 1013.55102-67.55265299999996 1013.55102-33.95918400000005c0 51.931429-208.17502 94.040816-464.979591 94.040817S83.591837 17.972245000000044 83.591837-33.95918400000005zM929.959184 221.64375500000006L761.720163 430.874122A42.078041 42.078041 0 0 1 729.432816 446.693878H367.699592a42.078041 42.078041 0 0 1-32.297796-15.819756L167.183673 221.64375500000006V112.32653100000005h762.775511V221.64375500000006zM310.198857 697.469388H786.912653a28.285388 28.285388 0 0 0 19.86351-8.077061c5.276735-5.182694 8.233796-12.214857 8.233796-19.539592v-644.827429C815.020408 9.769796000000042 802.450286-2.61224500000003 786.944-2.61224500000003H310.198857C294.692571-2.61224500000003 282.122449 9.759347000000048 282.122449 25.025306V669.779592a27.407673 27.407673 0 0 0 8.202449 19.581388A28.306286 28.306286 0 0 0 310.198857 697.469388zM369.528163 645.2244900000001h358.086531c7.878531 0 14.252408-6.457469 14.262857-14.419592v-180.11951c0-7.972571-6.373878-14.44049-14.262857-14.44049h-358.086531A14.346449 14.346449 0 0 0 355.265306 450.685388V630.804898c0 7.962122 6.384327 14.419592 14.262857 14.419592zM371.388082 363.102041h354.366694c8.902531 0 16.122776-7.021714 16.122775-15.67347s-7.209796-15.673469-16.122775-15.673469H371.388082C362.485551 331.75510199999997 355.265306 338.77681600000005 355.265306 347.42857100000003s7.209796 15.673469 16.122776 15.67347zM381.001143 279.51020400000004h345.589551A15.704816 15.704816 0 0 0 741.877551 263.836735c0-8.484571-6.770939-15.433143-15.286857-15.67347H381.001143A15.704816 15.704816 0 0 0 365.714286 263.836735c0 8.484571 6.770939 15.433143 15.286857 15.673469zM881.04751-54.85714299999995H216.084898c-22.768327 0-41.900408 16.457143-47.344327 38.50449-1.044898 4.210939-1.567347 8.526367-1.567347 12.862694V216.816327h185.072327c20.427755 0 36.905796-17.585633 36.905796-38.943347v-0.282123c-0.177633-21.127837 16.436245-38.410449 37.114775-38.59853h244.589715c20.448653 0 37.114776 17.334857 37.114775 38.765714v0.073143c0 21.326367 16.478041 38.995592 36.905796 38.995592H929.959184v-220.306286c0-4.336327-0.522449-8.651755-1.556898-12.862694C922.958367-38.420897999999966 903.815837-54.85714299999995 881.057959-54.85714299999995zM884.380735 652.716408l11.661061 49.25649C877.860571 722.02449 867.265306 746.443755 867.265306 772.8169800000001 867.265306 840.860735 938.109388 896 1025.494204 896c87.395265 0 158.208-55.139265 158.208-123.18302s-70.823184-123.18302-158.218449-123.183021c-29.873633-0.188082-59.350204 6.582857-85.974204 19.748572l-55.128816-16.666123zM1067.875265 769.7345310000001c0-10.584816 8.923429-19.163429 19.936653-19.163429 11.013224 0 19.947102 8.578612 19.947102 19.163429 0 10.584816-8.933878 19.163429-19.947102 19.163428s-19.936653-8.578612-19.936653-19.163428z m-84.772571-16.760164h-39.894204l20.291918 33.520327 19.602286-33.520327z m24.931265 33.520327h34.910041v-33.520327h-34.899592V786.494694z"  horiz-adv-x="1274" />

    
    <glyph glyph-name="filter" unicode="&#58886;" d="M903.125333 216.02133300000003h-213.333333a35.797333 35.797333 0 0 0-35.584 35.968c0 19.882667 15.914667 36.010667 35.584 36.010667h213.333333c19.626667 0 35.541333-16.128 35.541334-36.010667a35.797333 35.797333 0 0 0-35.541334-35.968z m0 144h-213.333333a35.797333 35.797333 0 0 0-35.584 35.968c0 19.882667 15.914667 36.010667 35.584 36.010667h213.333333c19.626667 0 35.541333-16.128 35.541334-36.010667a35.797333 35.797333 0 0 0-35.541334-35.968z m-124.458666 288l-195.541334-223.232v-311.978666L429.653333 9.813332999999943l-0.512 0.298667c-33.493333-20.224-76.842667-9.173333-96.853333 24.746667a72.149333 72.149333 0 0 0-9.941333 36.352v356.608l-219.306667 220.16h0.725333a72.32 72.32 0 0 0 4.693334 101.333333c13.098667 12.074667 30.208 18.773333 47.957333 18.688H725.333333a71.253333 71.253333 0 0 0 71.125334-71.424c0.042667-17.962667-6.528-35.285333-18.474667-48.554667h0.682667zM162.602667 696.021333l218.282666-220.586666v-0.512a35.626667 35.626667 0 0 0 12.586667-26.88c0-0.298667-0.128-0.512-0.128-0.768h0.128v-363.776L512 166.01599999999996v281.216h0.128L512 448a35.626667 35.626667 0 0 0 12.586667 26.922667v0.853333l194.56 220.245333H162.645333z m527.189333-552.021333h213.333333c19.626667 0 35.541333-16.085333 35.541334-35.968a35.797333 35.797333 0 0 0-35.541334-36.010667h-213.333333a35.797333 35.797333 0 0 0-35.584 36.010667c0 19.882667 15.914667 35.968 35.584 35.968z"  horiz-adv-x="1024" />

    
    <glyph glyph-name="see" unicode="&#58887;" d="M512 682.666667C252.8 682.666667 42.666667 482.688 42.666667 384c0-91.349333 210.133333-298.666667 469.333333-298.666667s469.333333 203.648 469.333333 298.666667c0 95.018667-210.133333 298.666667-469.333333 298.666667z m0-543.018667c-237.952 0-414.122667 193.28-414.122667 244.352 0 57.258667 176.512 244.352 414.122667 244.352 237.653333 0 414.122667-187.093333 414.122667-244.352 0-57.258667-176.512-244.352-414.122667-244.352z m0 448c-106.538667 0-193.28-85.248-193.28-190.08 0-104.789333 86.741333-190.037333 193.28-190.037333 106.538667 0 193.28 85.248 193.28 190.037333 0 104.832-86.741333 190.08-193.28 190.08z m0-325.845333c-76.117333 0-138.026667 60.928-138.026667 135.765333C373.973333 472.448 435.882667 533.333333 512 533.333333c76.117333 0 138.026667-60.885333 138.026667-135.765333 0-74.837333-61.909333-135.765333-138.026667-135.765333z m0 244.394666c-60.885333 0-110.421333-48.725333-110.421333-108.629333 0-14.976 12.330667-27.136 27.605333-27.136a27.392 27.392 0 0 1 27.605333 27.136c0 29.952 24.746667 54.314667 55.210667 54.314667a27.392 27.392 0 0 1 27.605333 27.136 27.392 27.392 0 0 1-27.605333 27.178666z"  horiz-adv-x="1024" />

    
    <glyph glyph-name="more" unicode="&#58888;" d="M256 384c0 47.317333-38.016 85.333333-85.333333 85.333333s-85.333333-38.016-85.333334-85.333333 38.016-85.333333 85.333334-85.333333 85.333333 38.016 85.333333 85.333333z m170.666667 0c0-47.317333 38.016-85.333333 85.333333-85.333333s85.333333 38.016 85.333333 85.333333-38.016 85.333333-85.333333 85.333333-85.333333-38.016-85.333333-85.333333z m341.333333 0c0-47.317333 38.016-85.333333 85.333333-85.333333s85.333333 38.016 85.333334 85.333333-38.016 85.333333-85.333334 85.333333c-46.805333 0-85.333333-38.016-85.333333-85.333333z"  horiz-adv-x="1024" />

    
    <glyph glyph-name="selected" unicode="&#58889;" d="M857.088 682.666667L401.664 242.85866699999997 166.912 469.546667 85.333333 390.741333 401.664 85.33333300000004 938.666667 603.9466669999999z"  horiz-adv-x="1024" />

    
    <glyph glyph-name="fullscreen" unicode="&#58890;" d="M346.88 810.666667H126.72c-23.04 0-41.386667-18.346667-41.386667-41.386667v-220.032a41.386667 41.386667 0 0 1 82.773334 0V669.952L290.133333 547.541333c16.64-15.36 42.666667-14.506667 58.453334 2.133334a40.96 40.96 0 0 1 0 56.32L226.133333 727.893333h120.746667A41.386667 41.386667 0 1 1 346.88 810.666667m0-770.176H226.133333l122.026667 121.984c15.36 16.64 14.506667 42.666667-2.133333 58.410666a41.002667 41.002667 0 0 1-56.32 0l-121.6-122.410666v120.704a41.386667 41.386667 0 0 1-82.773334 0v-220.032c0-23.04 18.346667-41.386667 41.386667-41.386667h220.16c22.613333 0 41.386667 18.346667 41.386667 41.386667 0 22.613333-18.773333 41.344-41.386667 41.344M897.28 810.666667h-220.16a41.386667 41.386667 0 1 1 0-82.730667h120.746667l-122.453334-121.984c-15.36-16.64-14.506667-42.666667 2.133334-58.410667 15.786667-14.933333 40.533333-14.933333 56.32 0l122.026666 121.984v-120.704c0-22.613333 18.346667-41.386667 41.386667-41.386666 23.04 0.426667 41.386667 19.2 41.386667 41.813333V769.28c0 23.04-18.346667 41.386667-41.386667 41.386667m0-550.144a41.386667 41.386667 0 0 1-41.386667-41.386667v-120.661333l-122.026666 121.984c-16.64 15.36-42.666667 14.506667-58.453334-2.133334a40.96 40.96 0 0 1 0-56.32l122.026667-121.941333h-120.746667a41.386667 41.386667 0 1 1 0-82.730667h220.16c22.613333 0 41.386667 18.346667 41.386667 41.386667v220.032a40.874667 40.874667 0 0 1-40.96 41.813333"  horiz-adv-x="1024" />

    
    <glyph glyph-name="rise" unicode="&#58891;" d="M871.509333 381.013333c-16.341333-16-40.874667-23.978667-57.173333-23.978666-16.384 0-40.874667 7.978667-57.216 23.978666l-163.413333 159.872v-503.594666C593.706667-10.709333000000015 561.024-42.66666699999996 512-42.66666699999996s-81.706667 32-81.706667 79.957334V540.885333l-163.413333-159.872c-32.682667-32-81.706667-32-114.346667 0-32.682667 32-32.682667 79.914667 0 111.914667l302.293334 295.765333c8.149333 7.978667 16.341333 15.957333 24.490666 15.957334 16.341333 8.021333 40.832 8.021333 65.365334 0 8.149333-7.978667 16.341333-7.978667 24.490666-15.957334l302.336-295.765333c32.64-23.978667 32.64-79.957333 0-111.914667z"  horiz-adv-x="1024" />

    
    <glyph glyph-name="decline" unicode="&#58892;" d="M152.490667 386.986667c16.341333 16 40.874667 23.978667 57.173333 23.978666 16.384 0 40.874667-7.978667 57.216-23.978666l163.413333-159.872V730.709333C430.293333 778.709333 462.976 810.666667 512 810.666667s81.706667-32 81.706667-79.957334v-503.594666l163.413333 159.872c32.682667 32 81.706667 32 114.346667 0 32.682667-32 32.682667-79.914667 0-111.914667l-302.293334-295.765333c-8.149333-7.978667-16.341333-15.957333-24.490666-15.957334-16.341333-8.021333-40.832-8.021333-65.365334 0-8.149333 7.978667-16.341333 7.978667-24.490666 15.957334l-302.336 295.765333c-32.64 23.978667-32.64 79.957333 0 111.914667z"  horiz-adv-x="1024" />

    
    <glyph glyph-name="export" unicode="&#58893;" d="M899.413333 306.38933299999997a38.826667 38.826667 0 0 1-38.826666-38.826666v-232.661334H162.56V733.3546670000001h232.874667a38.826667 38.826667 0 1 1 0 77.013333H162.56c-42.581333-0.042667-77.098667-34.517333-77.269333-77.098667V34.559999999999945c0.085333-42.666667 34.645333-77.141333 77.226666-77.184h698.709334a77.312 77.312 0 0 1 77.141333 77.184v233.045333a38.826667 38.826667 0 0 1-38.698667 38.826667M864 810.496h-188.586667a37.589333 37.589333 0 0 1-6.4-74.965333c2.133333-0.170667 4.266667-0.170667 6.4 0h134.997334l-311.893334-311.978667a37.632 37.632 0 0 1 53.12-53.162667l312.021334 312.064v-135.424a37.589333 37.589333 0 1 1 74.88-6.4 36.821333 36.821333 0 0 1 0 6.4V735.530667c0 41.258667-33.322667 74.709333-74.538667 74.922666"  horiz-adv-x="1024" />

    
    <glyph glyph-name="download" unicode="&#58894;" d="M85.333333 139.39200000000005h853.333334V42.66666699999996H85.333333v96.725333z m661.333334 278.186667l-188.032-165.077334c-11.690667-9.898667-28.202667-16.384-46.677334-16.384-17.066667-0.256-33.578667 5.632-46.506666 16.469334l-188.330667 164.992a44.970667 44.970667 0 0 0-16.085333 33.109333c0 27.349333 28.117333 49.493333 62.72 49.493333h1.493333v0.213334h124.032V621.7386670000001c0 27.392 28.16 49.536 62.762667 49.536 34.645333 0 62.762667-22.144 62.762666-49.493334v-121.429333h121.770667v-0.426667c1.28 0 2.432 0.213333 3.712 0.213334 34.645333 0 62.72-22.186667 62.72-49.536-0.298667-12.8-6.229333-24.789333-16.256-33.024H746.666667zM411.605333 768h200.789334v-290.133333H411.605333V768z"  horiz-adv-x="1024" />

    
    <glyph glyph-name="join_door" unicode="&#58895;" d="M458.24 387.84c-90.88 0-164.522667 75.349333-164.522667 167.594667s73.642667 167.594667 164.48 167.594666c90.88 0 164.522667-75.349333 164.522667-167.594666s-73.642667-167.594667-164.522667-167.594667m192.725334-150.656c-9.386667 0-18.773333 3.072-26.624 9.216a294.314667 294.314667 0 0 1-159.829334 47.658667c-159.786667 0-288.256-129.152-288.256-285.994667a45.824 45.824 0 0 0-45.44-43.050667c-25.088 0-43.861333 18.474667-45.44 44.586667v1.536a377.941333 377.941333 0 0 0 222.464 341.333333c-62.677333 47.658667-101.845333 123.008-101.845333 202.965334C205.952 695.381333 321.92 810.666667 464.512 810.666667c142.506667 0 258.474667-115.328 258.474667-256.768 0-81.493333-37.589333-155.306667-101.845334-202.965334 18.773333-9.216 37.632-18.432 56.405334-30.72 12.544-7.68 20.394667-23.082667 20.394666-36.906666 0-26.154667-21.973333-46.122667-47.018666-46.122667z m272.64 15.36c18.773333-16.896 20.352-44.586667 3.114666-61.525333l-200.533333-219.861334c-9.386667-9.216-20.394667-13.824-32.938667-13.824-10.965333 0-20.352 3.072-29.738666 10.752l-156.672 132.266667c-18.816 15.36-20.394667 43.008-4.693334 61.44 15.658667 18.474667 43.861333 20.053333 62.634667 4.650667l123.776-104.533334 170.794667 187.562667a48.725333 48.725333 0 0 0 64.213333 3.072z"  horiz-adv-x="1024" />

    
    <glyph glyph-name="xfhp" unicode="&#58896;" d="M856.490667 352.68266700000004h-230.741334a82.261333 82.261333 0 0 1-82.218666-82.218667v-231.082667A81.834667 81.834667 0 0 1 625.194667-42.66666699999996h231.296A82.218667 82.218667 0 0 1 938.666667 39.55200000000002V270.506667a82.218667 82.218667 0 0 1-82.176 82.218666zM407.04 810.666667h-230.826667a82.218667 82.218667 0 0 1-82.133333-82.218667v-231.082667c0-21.973333 8.576-42.581333 24.106667-58.154666 15.402667-15.402667 36.266667-24.021333 58.026666-23.893334h230.826667a82.218667 82.218667 0 0 1 82.133333 82.218667V728.448A82.346667 82.346667 0 0 1 407.04 810.666667z m4.096-304.213334a13.013333 13.013333 0 0 0-12.928-13.098666H184.917333a12.544 12.544 0 0 0-9.173333 3.882666 12.373333 12.373333 0 0 0-3.712 9.088v213.333334c0 7.253333 5.845333 13.098667 12.970667 13.098666h213.12c7.168 0 13.013333-5.845333 13.013333-13.141333V506.453333h-0.042667z m493.482667 202.410667h-3.498667a34.218667 34.218667 0 0 1-34.133333-34.133333v-53.333334c-69.034667 79.786667-163.072 132.522667-267.264 152.490667a37.290667 37.290667 0 0 1-13.056 3.242667c-0.981333 0.170667-1.962667 0.554667-2.901334 0.682666v-0.298666a36.864 36.864 0 0 1 0-73.728v-0.384c122.154667-22.4 227.84-99.114667 284.885334-213.333334a34.688 34.688 0 0 1 13.653333-14.08 33.152 33.152 0 0 1 18.816-6.485333h3.498667c18.773333 0 34.090667 15.36 34.090666 34.090667V674.56c0 18.858667-15.232 34.133333-34.090666 34.261333z m-455.253334-655.189333c-0.128 0-0.256-0.128-0.341333-0.128-125.312 19.2-234.88 95.36-294.4 210.389333a34.005333 34.005333 0 0 1-31.616 21.76H119.466667a33.877333 33.877333 0 0 1-32.085334-24.064c-0.938667-2.389333-1.152-4.992-1.493333-7.552-0.128-0.853333-0.469333-1.621333-0.469333-2.432v-1.792c0-1.706667-0.170667-3.328 0-5.034667v-164.266666c0-18.688 15.36-34.090667 34.048-34.090667h3.541333c18.773333 0 34.090667 15.402667 34.090667 34.133333v52.906667c71.765333-81.024 169.386667-133.12 276.992-150.613333 4.650667-2.218667 10.752-2.218667 16.298666-2.218667 0.170667 0 0.298667 0.128 0.426667 0.128h0.128v0.042667c20.224 0.426667 35.626667 15.402667 35.626667 35.669333a37.248 37.248 0 0 1-37.205334 37.12z"  horiz-adv-x="1024" />

    


  </font>
</defs>
</svg>
