<?xml version="1.0" encoding="UTF-8"?>
<svg width="100px" height="80px" viewBox="0 0 100 80" version="1.1" xmlns="http://www.w3.org/2000/svg" xmlns:xlink="http://www.w3.org/1999/xlink">
    <title>4354341A-81ED-462A-BDFC-73D6FF6B4140</title>
    <defs>
        <filter x="-16.4%" y="-81.7%" width="132.9%" height="263.3%" filterUnits="objectBoundingBox" id="filter-1">
            <feGaussianBlur stdDeviation="4" in="SourceGraphic"></feGaussianBlur>
        </filter>
        <path d="M41.7098361,1.63346939 L41.7098361,2.59836735 C41.7106557,4.40163265 40.2434426,5.86367347 38.4336066,5.86367347 L38.4336066,5.86367347 L20.4918033,5.86367347 L20.3278689,5.85959184 C18.5934426,5.7755102 17.2131148,4.3477551 17.2131148,2.59836735 L17.2131148,2.59836735 L17.2131148,1.63265306 C17.2131148,0.731428571 16.4795082,0 15.5737705,0 L15.5737705,0 L0,0.000816326531 L0,17.96 C0,19.7632653 1.46803279,21.2253061 3.27868852,21.2253061 L3.27868852,21.2253061 L55.8196721,21.2253061 C57.6303279,21.2253061 59.0983607,19.7632653 59.0983607,17.96 L59.0983607,17.96 L59.0983607,0.000816326531 L43.35,0 C42.4442623,0 41.7098361,0.732244898 41.7098361,1.63346939 L41.7098361,1.63346939 Z" id="path-2"></path>
    </defs>
    <g id="控件" stroke="none" stroke-width="1" fill="none" fill-rule="evenodd">
        <g id="img/空状态-添加">
            <rect id="矩形" x="0" y="7.10542736e-15" width="100" height="80"></rect>
            <ellipse id="椭圆形" fill="#192437" opacity="0.975472586" filter="url(#filter-1)" cx="49.5901639" cy="72.6530612" rx="36.4754098" ry="7.34693878"></ellipse>
            <polygon id="矩形" fill="#151F2F" points="31.7351651 39.0964304 67.52713 39.0964304 79.1803279 53.0556141 20.0819672 53.0556141"></polygon>
            <rect id="矩形" fill="#848D9F" x="29.1393443" y="15.667859" width="40.9836066" height="44.0816327" rx="1.63934426"></rect>
            <path d="M36.4754098,20.5658182 L62.704918,20.5658182 C63.6103029,20.5658182 64.3442623,21.2997776 64.3442623,22.2051624 L64.3442623,32.9992408 L64.3442623,32.9992408 L64.3442623,35.2530045 C64.3442623,36.1583894 63.6103029,36.8923488 62.704918,36.8923488 L36.4754098,36.8923488 C35.570025,36.8923488 34.8360656,36.1583894 34.8360656,35.2530045 L34.8360656,22.2051624 C34.8360656,21.2997776 35.570025,20.5658182 36.4754098,20.5658182 Z" id="矩形" fill="#3A475F"></path>
            <rect id="矩形备份" fill="#3A475F" x="34.8360656" y="41.7392876" width="29.5081967" height="2.44897959" rx="1.2244898"></rect>
            <rect id="矩形备份-2" fill="#3A475F" x="34.8360656" y="48.4957714" width="29.5081967" height="2.44897959" rx="1.2244898"></rect>
            <g id="编组" transform="translate(20.081967, 53.069498)">
                <mask id="mask-3" fill="white">
                    <use xlink:href="#path-2"></use>
                </mask>
                <g id="Clip-2"></g>
                <polygon id="Fill-1" fill="#2F3D59" mask="url(#mask-3)" points="-4.09836066 25.3069388 63.1967213 25.3069388 63.1967213 -4.08081633 -4.09836066 -4.08081633"></polygon>
            </g>
        </g>
    </g>
</svg>